<svg width="64" height="64" viewBox="0 0 64 64" fill="none" xmlns="http://www.w3.org/2000/svg">
<mask id="mask0_1003_17207" style="mask-type:alpha" maskUnits="userSpaceOnUse" x="0" y="0" width="64" height="64">
<rect width="64" height="64" fill="#D9D9D9"/>
</mask>
<g mask="url(#mask0_1003_17207)">
<path d="M15.9998 53.3337C13.7776 53.3337 11.8887 52.5559 10.3332 51.0003C8.77762 49.4448 7.99984 47.5559 7.99984 45.3337H2.6665V16.0003C2.6665 14.5337 3.18873 13.2781 4.23317 12.2337C5.27762 11.1892 6.53317 10.667 7.99984 10.667H45.3332V21.3337H53.3332L61.3332 32.0003V45.3337H55.9998C55.9998 47.5559 55.2221 49.4448 53.6665 51.0003C52.111 52.5559 50.2221 53.3337 47.9998 53.3337C45.7776 53.3337 43.8887 52.5559 42.3332 51.0003C40.7776 49.4448 39.9998 47.5559 39.9998 45.3337H23.9998C23.9998 47.5559 23.2221 49.4448 21.6665 51.0003C20.1109 52.5559 18.2221 53.3337 15.9998 53.3337ZM15.9998 48.0003C16.7554 48.0003 17.3887 47.7448 17.8998 47.2337C18.4109 46.7225 18.6665 46.0892 18.6665 45.3337C18.6665 44.5781 18.4109 43.9448 17.8998 43.4337C17.3887 42.9226 16.7554 42.667 15.9998 42.667C15.2443 42.667 14.6109 42.9226 14.0998 43.4337C13.5887 43.9448 13.3332 44.5781 13.3332 45.3337C13.3332 46.0892 13.5887 46.7225 14.0998 47.2337C14.6109 47.7448 15.2443 48.0003 15.9998 48.0003ZM7.99984 40.0003H10.1332C10.8887 39.2003 11.7554 38.5559 12.7332 38.067C13.7109 37.5781 14.7998 37.3337 15.9998 37.3337C17.1998 37.3337 18.2887 37.5781 19.2665 38.067C20.2443 38.5559 21.111 39.2003 21.8665 40.0003H39.9998V16.0003H7.99984V40.0003ZM47.9998 48.0003C48.7554 48.0003 49.3887 47.7448 49.8998 47.2337C50.4109 46.7225 50.6665 46.0892 50.6665 45.3337C50.6665 44.5781 50.4109 43.9448 49.8998 43.4337C49.3887 42.9226 48.7554 42.667 47.9998 42.667C47.2443 42.667 46.611 42.9226 46.0998 43.4337C45.5887 43.9448 45.3332 44.5781 45.3332 45.3337C45.3332 46.0892 45.5887 46.7225 46.0998 47.2337C46.611 47.7448 47.2443 48.0003 47.9998 48.0003ZM45.3332 34.667H56.6665L50.6665 26.667H45.3332V34.667Z" fill="#1C1B1F"/>
</g>
</svg>
